<svg xmlns="http://www.w3.org/2000/svg" viewBox="0 0 36 36">
  <path fill="#06B6D4" d="M8 32c0-1 .5-2 1.5-3l2-2c.5-.5 1-1.5 1-2.5V18c0-2 1-4 2.5-5.5l3-3c1-1 2.5-2.5 3.5-4.5l1-2.5c.5-1.5 1.5-2 2.5-1.5s1.5 2 1 3.5l-1 3c-.5 1.5-.5 3.5.5 5l1.5 2c1 1.5 2 2 3 1.5s2-2 2-4v-2c0-1 .5-1.5 1-1s.5 1.5 0 2.5l-.5 2c-.5 2-1 4-2.5 5.5L28 20c-.5.5-1 1.5-1 2.5v2c0 1.5-.5 3-1.5 4l-1.5 1.5c-1 1-2 1.5-3 1.5H10c-1.5 0-2-.5-2-1.5z"/>
  <path fill="#0E7490" d="M18 16l-3 3c-.5.5-1 1.5-1 2.5v6c0 .5-.5 1-1 1s-1-.5-1-1v-5c0-1.5.5-3 1.5-4l3-3c1-1 2.5-1 2.5 0s-.5 1-1 1z"/>
  <circle fill="#0E7490" cx="24" cy="8" r="1.2"/>
</svg>
