<svg xmlns="http://www.w3.org/2000/svg" viewBox="0 0 200 64">
  <defs>
    <linearGradient id="heronGrad" x1="0%" y1="0%" x2="100%" y2="100%">
      <stop offset="0%" style="stop-color:#06B6D4;stop-opacity:1" />
      <stop offset="100%" style="stop-color:#0891B2;stop-opacity:1" />
    </linearGradient>
  </defs>

  <g transform="translate(4, 4) scale(0.875)">
    <path fill="url(#heronGrad)" d="M18 4c-2.5 0-4.5 2-4.5 4.5v3c0 1.1-.9 2-2 2s-2-.9-2-2V8.5C9.5 6.1 7.4 4 5 4H3v2h2c1.1 0 2 .9 2 2v3c0 2.5 2 4.5 4.5 4.5.8 0 1.5-.2 2.1-.5l-4.6 12c-.2.5.2 1 .7 1h14.6c.5 0 .9-.5.7-1l-4.6-12c.6.3 1.3.5 2.1.5 2.5 0 4.5-2 4.5-4.5v-3c0-1.1.9-2 2-2h2V4h-2c-2.4 0-4.5 2.1-4.5 4.5v3c0 1.1-.9 2-2 2s-2-.9-2-2v-3C22.5 6 20.5 4 18 4z"/>
    <path fill="#0E7490" d="M18 8c-1.1 0-2 .9-2 2v4c0 .5-.2 1-.5 1.4l1.5 4.1 1.5-4.1c-.3-.4-.5-.9-.5-1.4v-4c0-1.1-.9-2-2-2s-2 .9-2 2v4c0 .5-.2 1-.5 1.4l1.5 4.1 1.5-4.1c-.3-.4-.5-.9-.5-1.4v-4c0-1.1-.9-2-2-2z" opacity="0.3"/>
  </g>

  <text
    x="52"
    y="42"
    font-family="'Inter', 'Segoe UI', system-ui, sans-serif"
    font-size="32"
    font-weight="700"
    letter-spacing="-0.5"
    fill="#06B6D4"
  >Heron</text>
</svg>
